<?xml version="1.0" encoding="utf-8"?>


<svg version="1.1" id="svg61496" xmlns="http://www.w3.org/2000/svg" xmlns:xlink="http://www.w3.org/1999/xlink" x="0px" y="0px"
	 viewBox="0 0 200 486" enable-background="new 0 0 200 486" xml:space="preserve">

<g transform=" scale(2.1727824388317387,2.1727824388317387) translate(1616.1980666389668,995.6546850778241)"><g><g id="id_18720e09b6d-0-f710afb0-402a-4c98-a0fc-23520ae0f8d4_0"></g></g><g><g id="id_18720e09b6d-0-f710afb0-402a-4c98-a0fc-23520ae0f8d4_1"></g></g><g fill="#bfbfbf" stroke="#bfbfbf" style="stroke-linecap:round;stroke-linejoin:round"><g id="id_18720e09b6d-0-f710afb0-402a-4c98-a0fc-23520ae0f8d4_2"><g id="id_187ae5c2228-21-b3404519-2da4-48a8-99aa-6f7b51ca2cf4_2" transform="translate(-1346.03756206695,-869.5491003201876) rotate(0) scale(1,1)" class=""></g></g></g><g><g id="id_18720e09b6d-0-f710afb0-402a-4c98-a0fc-23520ae0f8d4_3"><g id="id_187ae5c2228-21-b3404519-2da4-48a8-99aa-6f7b51ca2cf4_3" transform="translate(-1346.03756206695,-869.5491003201876) rotate(0) scale(1,1)" class=""></g></g></g><g><g id="id_18720e09b6d-0-f710afb0-402a-4c98-a0fc-23520ae0f8d4_4"></g></g><g><g id="id_18720e09b6d-0-f710afb0-402a-4c98-a0fc-23520ae0f8d4_5"><g id="id_187ae5c2228-21-b3404519-2da4-48a8-99aa-6f7b51ca2cf4_5" transform="translate(-1346.03756206695,-869.5491003201876) rotate(0) scale(1,1)" class=""><g><g><svg class="cgfx__led" viewBox="-1000 -1000 2000 2000" width="2000" height="2000" x="-1000" y="-1000"><path style="fill:none;stroke:#8C8C8C;stroke-width:2;stroke-linecap:round;stroke-miterlimit:10;" d="M5,0c0,0,0-1.13,0-2.06S2.5-4.48,2.5-5.72s0-4.54,0-4.54"></path><line style="fill:none;stroke:#8C8C8C;stroke-width:2;stroke-linecap:round;stroke-miterlimit:10;" x1="-5" y1="-10" x2="-5" y2="0"></line><path class="cgfx__selected" display="none" fill="none" stroke="#3b8ed7" stroke-width="2" stroke-miterlimit="10" stroke-linecap="round" stroke-linejoin="round" d="M5,0c0,0,0-1.13,0-2.06S2.5-4.48,2.5-5.72s0-4.54,0-4.54"></path><line class="cgfx__selected" display="none" fill="none" stroke="#3b8ed7" stroke-width="2" stroke-miterlimit="10" stroke-linecap="round" stroke-linejoin="round" x1="-5" y1="-10.26" x2="-5" y2="0"></line><path class="cgfx__selected" display="none" fill="#3b8ed7" stroke="#3b8ed7" stroke-width="3.5" stroke-miterlimit="10" stroke-linecap="round" stroke-linejoin="round" d="M5.55-13.41v-8.26c0-3.76-3.04-6.8-6.8-6.8c-3.76,0-6.8,3.04-6.8,6.8v8.26v2.03v3.37c1.38,1.14,3.9,1.91,6.8,1.91c4.37,0,7.91-1.74,7.91-3.88c0-0.23,0-1.15,0-1.4C6.66-12.12,6.25-12.81,5.55-13.41z"></path><path class="cgfx__basecolor" fill="#ff4040" d="M5.55-13.41v-8.26c0-3.76-3.04-6.8-6.8-6.8c-3.76,0-6.8,3.04-6.8,6.8v8.26v2.03v3.37c1.38,1.14,3.9,1.91,6.8,1.91c4.37,0,7.91-1.74,7.91-3.88c0-0.23,0-1.15,0-1.4C6.66-12.12,6.25-12.81,5.55-13.41z"></path><path style="opacity:0.3;fill:#FFFFFF;" d="M-1.25-14.34c3.76,0,6.8,1.33,6.8,2.96v-2.03c-1.38-1.17-3.9-1.96-6.8-1.96c-2.9,0-5.42,0.79-6.8,1.96v2.03C-8.05-13.02-5.01-14.34-1.25-14.34z"></path><path style="opacity:0.5;" d="M5.55-13.41v-1.97c0,1.64-3.04,2.96-6.8,2.96c-3.76,0-6.8-1.33-6.8-2.96h0v7.37c1.38,1.14,3.9,1.91,6.8,1.91c4.37,0,7.91-1.74,7.91-3.88c0-0.23,0-1.15,0-1.4C6.66-12.12,6.25-12.81,5.55-13.41z"></path><path style="opacity:0.2;fill:#FFFFFF;" d="M5.55-13.41v2.03c0,1.64-3.04,2.96-6.8,2.96c-3.76,0-6.8-1.33-6.8-2.96v2.03c1.38,1.17,3.9,1.96,6.8,1.96c4.37,0,7.91-1.79,7.91-3.99C6.66-12.12,6.25-12.81,5.55-13.41z"></path><path style="opacity:0.7;fill:#FFFFFF;" d="M-6.26-13.38c1.24,0.59,3.02,0.96,5.01,0.96c1.99,0,3.77-0.37,5.01-0.96c-1.24-0.59-3.02-0.96-5.01-0.96C-3.24-14.34-5.02-13.97-6.26-13.38z"></path><path class="cgfx__mask" fill-opacity="1" fill="#802020" d="M-1.25-8.41c3.76,0,6.8-1.33,6.8-2.96v-10.29c0-3.76-3.04-6.8-6.8-6.8c-3.76,0-6.8,3.04-6.8,6.8l0,10.29C-8.05-9.74-5.01-8.41-1.25-8.41z"></path><path class="cgfx__hitarea" display="none" style="stroke:#ff0000;fill:none;stroke-width:2;stroke-linecap:round;stroke-miterlimit:10;" opacity="0" d="M5,0c0,0,0-1.13,0-2.06S2.5-4.48,2.5-5.72s0-4.54,0-4.54"></path><line class="cgfx__hitarea" display="none" style="stroke:#ff0000;fill:none;stroke-width:2;stroke-linecap:round;stroke-miterlimit:10;" opacity="0" x1="-5" y1="-10.26" x2="-5" y2="0"></line><path class="cgfx__hitarea" display="none" style="fill:#ff0000;" opacity="0" d="M5.55-13.41v-8.26c0-3.76-3.04-6.8-6.8-6.8c-3.76,0-6.8,3.04-6.8,6.8v8.26v2.03v3.37c1.38,1.14,3.9,1.91,6.8,1.91c4.37,0,7.91-1.74,7.91-3.88c0-0.23,0-1.15,0-1.4C6.66-12.12,6.25-12.81,5.55-13.41z"></path><polygon class="cgfx__breakdown" transform="translate(-1,-17)rotate(0) scale(1,1)" display="none" style="opacity:0.7;fill:#FF0000;stroke:#F7E60B;stroke-miterlimit:10;" points="2.415,-5.161 7.901,-7.299 5.471,-2.294 11.953,-0.565 5.126,1.63 8.332,8.197 2.59,5.053 -0.137,10.527 -2.24,4.375 -7.565,7.957 -6.133,2.443 -11.953,0.87 -5.945,-1.796 -8.854,-7.513 -3.289,-5.371 -1.401,-10.527 "></polygon><g class="cgfx__warning" transform="translate(5,-35) scale(0.44,0.44)" display="none"><circle cx="11.6" cy="11.9" r="10.45" fill="#f4f5f6" stroke="#000000" stroke-width="2.2"></circle><path d="M11.16,7.5 C10.89,7.5 10.67,7.72 10.68,8.01 L10.85,13.46 C10.86,13.74 11.09,13.97 11.37,13.97 L11.64,13.97 C11.92,13.97 12.15,13.75 12.16,13.46 L12.33,8.01 C12.34,7.73 12.11,7.5 11.85,7.5 L11.16,7.5 Z M11.51,17.5 C12.07,17.5 12.5,17.01 12.5,16.39 C12.5,15.79 12.07,15.28 11.51,15.28 C10.95,15.28 10.5,15.79 10.5,16.39 C10.5,17.01 10.95,17.5 11.51,17.5 Z" stroke="#000000" stroke-width="0.35" fill="#231F20"></path></g><g class="cgfx__terminal"><desc class="cgfx__terminalname">Cathode</desc><desc class="cgfx__terminaltype">breadboard</desc><line class="cgfx__origin cgfx__direction cgfx__reference cgfx__debug" x1="-5" y1="0" x2="-5" y2="25" stroke-dasharray="10,2,3,2,3,2,3" style="stroke:rgb(255,0,0);stroke-width:2;opacity:0.5" display="none"></line></g><g class="cgfx__terminal"><desc class="cgfx__terminalname">Anode</desc><desc class="cgfx__terminaltype">breadboard</desc><line class="cgfx__origin cgfx__direction cgfx__reference cgfx__debug" x1="5" y1="0" x2="5" y2="25" stroke-dasharray="10,2,3,2,3,2,3" style="stroke:rgb(255,0,0);stroke-width:2;opacity:0.5" display="none"></line></g></svg></g></g><g transform="translate(-5,0) rotate(90)"><g opacity="0"><rect x="-3.5" y="-3.5" width="7" height="7" fill="red" stroke="black" stroke-width="2"></rect></g></g><g transform="translate(5,0) rotate(90)"><g opacity="0"><rect x="-3.5" y="-3.5" width="7" height="7" fill="red" stroke="black" stroke-width="2"></rect></g></g></g><g id="id_187ae5c2228-21-b3404519-2da4-48a8-99aa-6f7b51ca2cf4_5" transform="translate(-1346.03756206695,-869.5491003201876)" class=""></g></g></g><g><g id="id_18720e09b6d-0-f710afb0-402a-4c98-a0fc-23520ae0f8d4_6"></g></g><g><g id="id_18720e09b6d-0-f710afb0-402a-4c98-a0fc-23520ae0f8d4_7"><g id="id_187ae5c2228-21-b3404519-2da4-48a8-99aa-6f7b51ca2cf4_7" transform="translate(-1346.03756206695,-869.5491003201876) rotate(0) scale(1,1)" class=""></g></g></g><g><g id="id_18720e09b6d-0-f710afb0-402a-4c98-a0fc-23520ae0f8d4_8"></g></g><g></g><g><g id="id_18720e09b6d-0-f710afb0-402a-4c98-a0fc-23520ae0f8d4_10"></g></g><g><g id="id_18720e09b6d-0-f710afb0-402a-4c98-a0fc-23520ae0f8d4_11"></g></g><g fill="green" stroke="green" opacity="0"><g id="id_18720e09b6d-0-f710afb0-402a-4c98-a0fc-23520ae0f8d4_12"><g id="id_187ae5c2228-21-b3404519-2da4-48a8-99aa-6f7b51ca2cf4_12" transform="translate(-1346.03756206695,-869.5491003201876) rotate(0) scale(1,1)" class=""></g></g></g><g><g id="id_18720e09b6d-0-f710afb0-402a-4c98-a0fc-23520ae0f8d4_13"><g id="id_187ae5c2228-21-b3404519-2da4-48a8-99aa-6f7b51ca2cf4_13" transform="translate(-1346.03756206695,-869.5491003201876) rotate(0) scale(1,1)" class=""></g></g></g><g><g id="id_18720e09b6d-0-f710afb0-402a-4c98-a0fc-23520ae0f8d4_14"><g id="id_187ae5c2228-21-b3404519-2da4-48a8-99aa-6f7b51ca2cf4_14" transform="translate(-1346.03756206695,-869.5491003201876) rotate(0) scale(1,1)" class=""><g><path class="cgfx__hitarea" display="inline" style="stroke:#ff0000;fill:none;stroke-width:2;stroke-linecap:round;stroke-miterlimit:10;" opacity="0" d="M5,0c0,0,0-1.13,0-2.06S2.5-4.48,2.5-5.72s0-4.54,0-4.54"></path><line class="cgfx__hitarea" display="inline" style="stroke:#ff0000;fill:none;stroke-width:2;stroke-linecap:round;stroke-miterlimit:10;" opacity="0" x1="-5" y1="-10.26" x2="-5" y2="0"></line><path class="cgfx__hitarea" display="inline" style="fill:#ff0000;" opacity="0" d="M5.55-13.41v-8.26c0-3.76-3.04-6.8-6.8-6.8c-3.76,0-6.8,3.04-6.8,6.8v8.26v2.03v3.37c1.38,1.14,3.9,1.91,6.8,1.91c4.37,0,7.91-1.74,7.91-3.88c0-0.23,0-1.15,0-1.4C6.66-12.12,6.25-12.81,5.55-13.41z"></path></g><g transform="translate(-5,0) rotate(90)"><rect x="-4" y="-4" width="8" height="8" fill="#ff0000" fill-opacity="0" stroke="none" title="" original-title="Cathode"></rect></g><g transform="translate(5,0) rotate(90)"><rect x="-4" y="-4" width="8" height="8" fill="#ff0000" fill-opacity="0" stroke="none" title="" original-title="Anode"></rect></g></g></g></g><g><g id="id_18720e09b6d-0-f710afb0-402a-4c98-a0fc-23520ae0f8d4_15"></g></g><g><g id="id_18720e09b6d-0-f710afb0-402a-4c98-a0fc-23520ae0f8d4_16"></g></g><g><g id="id_18720e09b6d-0-f710afb0-402a-4c98-a0fc-23520ae0f8d4_17"><g id="id_187ae5c2228-21-b3404519-2da4-48a8-99aa-6f7b51ca2cf4_17" transform="translate(-1346.03756206695,-869.5491003201876) rotate(0) scale(1,1)" class=""></g></g></g><g><g id="id_18720e09b6d-0-f710afb0-402a-4c98-a0fc-23520ae0f8d4_18"><g id="id_187ae5c2228-21-b3404519-2da4-48a8-99aa-6f7b51ca2cf4_18" transform="translate(-1346.03756206695,-869.5491003201876) rotate(0) scale(1,1)" class=""></g></g></g><g><g id="id_18720e09b6d-0-f710afb0-402a-4c98-a0fc-23520ae0f8d4_19"><g id="id_187ae5c2228-21-b3404519-2da4-48a8-99aa-6f7b51ca2cf4_19" transform="translate(-1346.03756206695,-869.5491003201876) rotate(0) scale(1,1)" class=""></g></g></g><g></g></g>


</svg>